<svg xmlns="http://www.w3.org/2000/svg" width="128pt" height="128pt" viewBox="0 0 160 160"><g transform="translate(0 -892.362)"><path style="isolation:auto;mix-blend-mode:normal" d="M79.625 895.862c-36.794.02-71.41 31.46-69 71.443.48 7.968 12.349-11.128 21.682-11.137 7.792.009 15.089 3.052 19.547 8.155 5.736-5.419 15.567-8.693 26.12-8.7 11.777.003 22.545 4.066 27.833 10.501 4.114-6.282 12.256-10.223 21.136-10.229 9.272.01 20.56 19.587 21.612 11.014 4.85-39.544-32.296-70.997-68.93-71.047z" color="#000" overflow="visible" fill="#6d6d6d" fill-rule="evenodd"/><rect style="isolation:auto;mix-blend-mode:normal" width="41" height="39" x="57.5" y="1010.862" rx="5" ry="4.756" color="#000" overflow="visible" fill="#6d6d6d" fill-rule="evenodd"/><path d="M12.621 964.832l64.998 54.725m67.113-54.984l-67.207 55.167m-27.129-59.618l27.263 59.49m27.798-56.343l-27.252 53.484" fill="none" stroke="#6d6d6d" stroke-width="5" stroke-linecap="round" stroke-linejoin="round"/></g></svg>